<svg version="1.1" xmlns="http://www.w3.org/2000/svg" width="2825" height="1013">
<path d="M0 0 C6.681237 -0.07766286 13.36235319 -0.12925454 20.04394531 -0.16479492 C22.30505723 -0.17964964 24.56614161 -0.19993884 26.82714844 -0.22631836 C47.13333665 -0.45686502 67.25437587 0.75316568 87 5.8125 C88.03487549 6.07039307 89.06975098 6.32828613 90.13598633 6.59399414 C120.97303109 14.51047739 145.76801621 29.2510025 162.59666157 56.59426308 C164.4340741 61.05344666 164.42464798 64.83006891 164.39872742 69.60507202 C164.40537424 70.56574982 164.41202107 71.52642762 164.41886932 72.51621687 C164.4375042 75.73145967 164.43489365 78.94633049 164.43237305 82.16162109 C164.44138988 84.46790086 164.45171691 86.77417582 164.46325684 89.08044434 C164.49086199 95.34023259 164.50011618 101.59993 164.50611091 107.85977125 C164.51548536 114.40212582 164.54168803 120.94441229 164.56611633 127.48672485 C164.60534052 138.46721094 164.63318745 149.44768631 164.65356445 160.42822266 C164.67457877 171.73684308 164.70185781 183.04541986 164.73754883 194.35400391 C164.73974765 195.05138453 164.74194648 195.74876515 164.74421193 196.46727853 C164.7552817 199.96592772 164.76647449 203.46457652 164.77772844 206.96322513 C164.87089168 235.97544229 164.94227825 264.98769112 165 294 C166.32030464 293.08229828 166.32030464 293.08229828 167.6672821 292.14605713 C168.8402546 291.33203365 170.01325515 290.51805061 171.1862793 289.70410156 C171.76426018 289.30220612 172.34224106 288.90031067 172.93773651 288.48623657 C233.18230983 246.70716284 308.27953266 220.30456964 381.9375 219.76171875 C383.04441193 219.75201553 384.15132385 219.74231232 385.29177856 219.73231506 C388.8612231 219.707482 392.43047778 219.69479511 396 219.6875 C397.22120544 219.68488159 398.44241089 219.68226318 399.70062256 219.67956543 C427.37140337 219.67322401 455.00685677 221.44408266 482 228 C483 229 483 229 483.12304783 231.7936182 C483.12212604 233.05370921 483.12120424 234.31380022 483.12025452 235.61207581 C483.12153615 236.66078862 483.12153615 236.66078862 483.12284368 237.73068756 C483.12450051 240.09074751 483.11897384 242.45073753 483.11352539 244.81079102 C483.11324354 246.49564614 483.11340122 248.18050139 483.1139679 249.86535645 C483.11425594 254.45400453 483.10835811 259.0426267 483.10139394 263.63126874 C483.09516153 268.42124632 483.09455669 273.21122443 483.09336853 278.00120544 C483.09025488 287.07829032 483.08204104 296.15536321 483.07201904 305.2324428 C483.06085895 315.56358581 483.05534772 325.89472939 483.05032361 336.22587693 C483.03985845 357.48392465 483.02225836 378.74196157 483 400 C481.39428809 399.51939452 479.78866304 399.03849884 478.18307495 398.55747986 C477.28893324 398.28971206 476.39479153 398.02194426 475.47355461 397.74606228 C472.87231572 396.96148845 470.28182634 396.14818444 467.6953125 395.31640625 C455.23873443 391.3713415 442.89130391 388.14342729 430 386 C428.72511719 385.77441406 427.45023437 385.54882812 426.13671875 385.31640625 C368.17904525 376.73227688 306.77612337 393.86471843 259.87109375 428.296875 C243.90874915 440.26742674 229.42760009 453.33533832 217 469 C216.34386719 469.78890625 215.68773437 470.5778125 215.01171875 471.390625 C205.19745664 483.27001241 197.16937628 496.39022911 190 510 C189.63551758 510.68416992 189.27103516 511.36833984 188.89550781 512.07324219 C160.9827677 565.21338378 156.86695888 629.45126767 174.42358398 686.51757812 C185.64051077 720.93702229 203.93830518 751.88388022 229 778 C229.58523437 778.6177832 230.17046875 779.23556641 230.7734375 779.87207031 C240.43485125 790.02958363 250.56482122 798.89256215 262 807 C262.63260742 807.45068848 263.26521484 807.90137695 263.91699219 808.36572266 C312.8441907 842.89272782 374.7747712 857.14336963 433.92480469 847.55224609 C469.70099124 841.1275292 503.6475706 827.56809908 533 806 C533.57443848 805.58250488 534.14887695 805.16500977 534.74072266 804.73486328 C543.39300122 798.41426222 551.27695697 791.41640328 559 784 C559.51449707 783.51273438 560.02899414 783.02546875 560.55908203 782.5234375 C568.54296865 774.94241916 575.43322727 766.82798427 582 758 C582.42522949 757.43555176 582.85045898 756.87110352 583.28857422 756.28955078 C614.44341098 714.7857025 629.35753572 665.41580072 629.51171875 613.8515625 C629.52725056 611.96768113 629.54405865 610.08380986 629.56213379 608.19995117 C629.61925525 601.34174468 629.65201507 594.48335257 629.6875 587.625 C629.790625 572.23875 629.89375 556.8525 630 541 C683.79 541 737.58 541 793 541 C794.12562387 556.75873413 794.12562387 556.75873413 794.14526367 562.79858398 C794.15030159 563.79497391 794.15030159 563.79497391 794.15544128 564.81149292 C794.16475008 566.95638026 794.16688542 569.1011876 794.16796875 571.24609375 C794.17119993 572.7884982 794.17456521 574.33090238 794.17805481 575.87330627 C794.18400001 579.09629013 794.18589999 582.31924739 794.18530273 585.54223633 C794.18522226 588.77536713 794.1920453 592.00835387 794.20581055 595.24145508 C794.50405961 666.46547738 783.21542113 735.29965715 749.99755859 799.07861328 C748.96058625 801.0759144 747.94298687 803.08241284 746.92578125 805.08984375 C726.72854799 844.53957138 697.14223675 883.06578357 663.3984375 911.94140625 C661.49114228 913.57844954 659.605444 915.23311597 657.7265625 916.90234375 C631.55552089 940.05121975 602.10419837 958.28236341 571 974 C570.24992676 974.38043457 569.49985352 974.76086914 568.72705078 975.15283203 C529.66551262 994.78049366 487.08945907 1005.16417961 444 1011 C443.03723145 1011.13422363 442.07446289 1011.26844727 441.08251953 1011.40673828 C347.89749337 1023.80235168 249.80546756 996.73901436 156.3125 933 C149.71584051 927.85198658 143.336791 922.46304338 137 917 C135.94232422 916.09507812 135.94232422 916.09507812 134.86328125 915.171875 C122.185839 904.22196681 109.87675767 892.75507325 99 880 C98.15179688 879.0409375 97.30359375 878.081875 96.4296875 877.09375 C83.75617656 862.69222964 72.22688382 847.23162289 62 831 C61.55124512 830.29037109 61.10249023 829.58074219 60.64013672 828.84960938 C31.53088762 782.4583018 12.62136024 731.3059606 4.1875 677.25 C3.8946814 675.38952026 3.8946814 675.38952026 3.59594727 673.49145508 C0.41097274 651.67191877 -0.29566715 629.78466955 -0.24050903 607.7663269 C-0.24138361 605.12463476 -0.2430558 602.48295378 -0.24568737 599.84126389 C-0.24978722 594.14991718 -0.24663025 588.45861277 -0.23841095 582.76727104 C-0.22622403 574.30477058 -0.22575005 565.84229618 -0.22749493 557.37978854 C-0.23010882 543.13705348 -0.22349318 528.89433713 -0.21146011 514.65160751 C-0.19959132 500.56694318 -0.19192124 486.48228664 -0.18975449 472.39761734 C-0.18954827 471.07980288 -0.18954827 471.07980288 -0.18933788 469.7353659 C-0.18866114 465.27297031 -0.1880584 460.81057472 -0.18748413 456.34817912 C-0.18329284 424.81121569 -0.16984487 393.27426241 -0.15087891 361.73730469 C-0.1324849 331.11588596 -0.11833002 300.49447002 -0.10986328 269.87304688 C-0.10960023 268.92774105 -0.10933718 267.98243523 -0.10906615 267.00848377 C-0.10642892 257.51459496 -0.10387732 248.02070612 -0.10138843 238.52681726 C-0.09631717 219.18984458 -0.09067467 199.85287208 -0.08468628 180.51589966 C-0.0844117 179.62698373 -0.08413712 178.7380678 -0.08385422 177.82221503 C-0.06547944 118.54813913 -0.03379219 59.27406887 0 0 Z " fill="#A274EA" transform="translate(0,0)"/>
<path d="M0 0 C369.78498932 0 369.78498932 0 439.8125 68.5625 C444.9077291 73.76946658 449.50946989 79.26907871 454 85 C454.77859375 85.96164062 455.5571875 86.92328125 456.359375 87.9140625 C483.06891765 121.51364641 499.35432852 162.37866511 504 205 C504.11085938 205.96550781 504.22171875 206.93101562 504.3359375 207.92578125 C509.49190659 261.64540513 494.30863199 315.767317 464.12231445 360.23022461 C462.93835535 362.09720732 461.95631988 364.00819197 461 366 C461.92897095 366.9132605 461.92897095 366.9132605 462.87670898 367.8449707 C465.22375339 370.15745149 467.56585912 372.47473018 469.9050293 374.79516602 C470.90869508 375.78891826 471.91416454 376.7808529 472.92163086 377.77075195 C479.76557788 384.49852613 486.09211886 391.4146884 492 399 C492.57387451 399.73500732 493.14774902 400.47001465 493.73901367 401.22729492 C510.62849847 423.23965662 522.88179166 447.87720749 529 475 C529.19609863 475.83869629 529.39219727 476.67739258 529.59423828 477.54150391 C536.14523878 506.78264186 535.306123 539.80658585 529 569 C528.78569336 569.99435059 528.57138672 570.98870117 528.35058594 572.01318359 C520.22358961 608.3362436 503.29195492 641.85257068 479 670 C478.24332031 670.886875 477.48664063 671.77375 476.70703125 672.6875 C474.52274896 675.17913908 472.28109984 677.59656988 470 680 C469.48276367 680.54978516 468.96552734 681.09957031 468.43261719 681.66601562 C459.05798659 691.56707188 449.10727268 700.0997382 438 708 C437.36594238 708.45213867 436.73188477 708.90427734 436.07861328 709.37011719 C409.66022133 728.01103464 380.21221517 740.14600061 348.625 746.75 C347.22906616 747.04837769 347.22906616 747.04837769 345.80493164 747.3527832 C232.70095083 769.6182489 115.27472159 751 0 751 C0 503.17 0 255.34 0 0 Z M156 156 C156 204.51 156 253.02 156 303 C175.861875 303.061875 195.72375 303.12375 216.1875 303.1875 C222.43840576 303.21481201 228.68931152 303.24212402 235.12963867 303.27026367 C240.77634183 303.28030245 240.77634183 303.28030245 246.42304993 303.28633118 C248.92082832 303.29091117 251.41860045 303.30140641 253.91633606 303.31672668 C257.71932339 303.33886894 261.5219085 303.3417119 265.32495117 303.34057617 C266.42111598 303.3513705 267.51728079 303.36216482 268.64666271 303.37328625 C279.45789314 303.33042145 289.73885695 301.31004322 299.3125 296.1875 C300.32957031 295.65974976 300.32957031 295.65974976 301.3671875 295.12133789 C306.29442106 292.50997531 310.75851677 289.63279657 315 286 C315.63808594 285.5153125 316.27617188 285.030625 316.93359375 284.53125 C329.57793436 274.47493232 338.9204609 256.91448935 341 241 C342.61880115 219.17908697 338.59430576 199.26138383 324.015625 182.234375 C323.01789063 181.12835938 323.01789063 181.12835938 322 180 C321.39671875 179.30390625 320.7934375 178.6078125 320.171875 177.890625 C307.86367133 164.5481185 289.13163709 156.86981269 271.16560745 155.83707047 C263.01949128 155.57994173 254.87146876 155.65508846 246.72265625 155.70703125 C244.39481828 155.7114511 242.06697731 155.71450608 239.73913574 155.71618652 C231.18021121 155.73181091 222.62135082 155.77369447 214.0625 155.8125 C194.901875 155.874375 175.74125 155.93625 156 156 Z M156 447 C156 495.84 156 544.68 156 595 C182.3183534 595.05831558 182.3183534 595.05831558 208.63671875 595.09765625 C219.3768099 595.1095009 230.11686956 595.12338838 240.85693359 595.15087891 C248.68056192 595.17089481 256.50416457 595.18373579 264.3278178 595.18817699 C268.46537448 595.19077056 272.60285776 595.19681017 276.74039078 595.21146011 C280.64571279 595.22517403 284.55093213 595.22919517 288.45627594 595.22621536 C289.87912685 595.22675942 291.30198169 595.23065379 292.72481155 595.23841095 C317.55830462 595.3670027 338.44760299 589.75522279 356.69140625 572.5 C371.38080572 556.5926977 377.98420048 537.38190356 377.33984375 515.9296875 C376.33024044 497.26819429 366.96292923 479.12704606 353.3359375 466.5390625 C334.36093413 450.45039767 313.86785891 446.6398019 289.61938477 446.77294922 C288.12572458 446.7735639 286.63206382 446.77329149 285.13840389 446.7722187 C281.18819328 446.77177268 277.23810727 446.78324693 273.28792572 446.79743958 C269.56234911 446.80894713 265.8368007 446.80937214 262.11120605 446.81079102 C251.26162128 446.82122806 240.412059 446.84915056 229.5625 446.875 C193.1490625 446.936875 193.1490625 446.936875 156 447 Z " fill="#A274EA" transform="translate(1450,245)"/>
<path d="M0 0 C1.64427979 0.25740967 1.64427979 0.25740967 3.32177734 0.52001953 C38.88210996 6.22006425 73.09189302 16.41028621 106 31 C106.82902832 31.36561035 107.65805664 31.7312207 108.51220703 32.10791016 C135.39181562 44.0781207 160.91692569 59.76289161 184 78 C184.804375 78.62519531 185.60875 79.25039063 186.4375 79.89453125 C204.30762702 93.95580107 222.13651649 109.30069825 236.94140625 126.6015625 C238.57844954 128.50885772 240.23311597 130.394556 241.90234375 132.2734375 C260.97300547 153.8317026 277.15813044 177.78075067 291 203 C291.44649902 203.80405273 291.89299805 204.60810547 292.35302734 205.43652344 C313.85875216 244.36180911 327.82187512 287.52948226 334.8125 331.375 C335.0077124 332.59670898 335.2029248 333.81841797 335.40405273 335.07714844 C338.28292001 354.32043787 339.38590728 373.55652356 339.3125 393 C339.30976578 394.52255402 339.30976578 394.52255402 339.30697632 396.0758667 C339.12030794 458.25771959 324.75750563 519.85815267 295.99316406 575.08740234 C294.96963791 577.05847016 293.96501717 579.03849635 292.9609375 581.01953125 C280.40028486 605.54739707 264.72563171 627.95289661 247 649 C246.3885463 649.7337233 246.3885463 649.7337233 245.76473999 650.48226929 C238.59623647 659.07261678 231.10364685 667.2156539 223.16333008 675.09741211 C221.42745269 676.82248477 219.7026491 678.55811991 217.97851562 680.29492188 C211.29275569 686.98858074 204.42658978 693.1279399 197 699 C195.97215907 699.86304193 194.94874902 700.73144668 193.93359375 701.609375 C136.91947393 750.50411313 63.81203468 778.30660025 -10 788 C-10.9801709 788.13277344 -11.9603418 788.26554688 -12.97021484 788.40234375 C-112.12411475 801.18018569 -218.41714499 771.75312903 -297.45703125 710.99609375 C-298.71580078 710.00802734 -298.71580078 710.00802734 -300 709 C-300.80824219 708.37222656 -301.61648437 707.74445312 -302.44921875 707.09765625 C-320.32434295 693.02207535 -338.23007298 677.6850933 -353.01171875 660.328125 C-354.62045463 658.44441855 -356.24938545 656.58601786 -357.89453125 654.734375 C-380.90722698 628.72623227 -400.05925673 599.23531996 -415.06884766 567.93164062 C-416.01331185 565.97238507 -416.97999717 564.02523482 -417.94921875 562.078125 C-438.93284965 519.38728972 -450.62988876 471.3300028 -454 424 C-454.08830078 422.8349292 -454.17660156 421.6698584 -454.26757812 420.46948242 C-455.33661502 404.71970418 -455.1523794 388.92402535 -455.13037109 373.14672852 C-455.12465118 369.0042842 -455.12798103 364.8619044 -455.13394356 360.71946239 C-455.13758822 357.47888213 -455.13639321 354.23831673 -455.13381577 350.99773598 C-455.13315849 349.4714183 -455.13393185 347.94509918 -455.13629532 346.41878319 C-455.13889001 344.27549117 -455.13488908 342.13229845 -455.12939453 339.98901367 C-455.12859894 338.78057297 -455.12780334 337.57213226 -455.12698364 336.32707214 C-454.94744493 330.20914259 -454.43607209 324.1050092 -454 318 C-400.21 318 -346.42 318 -291 318 C-290.75 364.3125 -290.75 364.3125 -290.70214844 378.75512695 C-290.32669938 438.75824909 -276.76486866 492.18125615 -239 540 C-238.55575684 540.56283691 -238.11151367 541.12567383 -237.65380859 541.70556641 C-226.09971186 556.1796906 -212.91241387 569.03360062 -198 580 C-196.89425275 580.83556908 -195.7887832 581.67150577 -194.68359375 582.5078125 C-146.2660801 618.62500403 -83.84218999 633.64023928 -24.1953125 625.0390625 C-6.2877829 622.16952208 11.14411697 617.70449088 28 611 C29.11930908 610.55599854 29.11930908 610.55599854 30.26123047 610.10302734 C48.40876217 602.76392287 65.46813956 592.89631443 81 581 C81.89847656 580.31292969 82.79695313 579.62585938 83.72265625 578.91796875 C89.72436439 574.21493007 95.4637804 569.24148313 101 564 C101.62326172 563.4107373 102.24652344 562.82147461 102.88867188 562.21435547 C113.37393459 552.21764449 122.63897979 541.83147096 131 530 C131.44923828 529.36884277 131.89847656 528.73768555 132.36132812 528.08740234 C168.31845816 477.13920357 181.77000359 413.96255284 171.58007812 352.64306641 C163.92428382 310.33642531 144.3525974 272.10632157 116 240 C115.55011719 239.48695313 115.10023438 238.97390625 114.63671875 238.4453125 C103.04852279 225.2875338 90.13108771 214.32874684 76 204 C75.11417236 203.34499512 75.11417236 203.34499512 74.21044922 202.67675781 C28.56798107 169.28241355 -32.78143932 154.48263398 -88.68164062 162.51953125 C-105.69800933 165.26058565 -122.16607925 169.67522167 -138.30859375 175.6796875 C-142 177 -142 177 -144 177 C-144 120.57 -144 64.14 -144 6 C-134.541606 2.847202 -124.83855135 1.50540808 -115 0 C-114.01306152 -0.15678223 -113.02612305 -0.31356445 -112.00927734 -0.47509766 C-75.94321758 -5.95476402 -36.00960539 -5.84478947 0 0 Z " fill="#A274EA" transform="translate(2486,223)"/>
<path d="M0 0 C77.70058461 -0.12099405 77.70058461 -0.12099405 110.23632812 -0.14648438 C117.68237325 -0.15235722 125.12841818 -0.15841844 132.57446289 -0.16479492 C133.50759082 -0.16558617 134.44071874 -0.16637741 135.40212327 -0.16719264 C150.42972861 -0.1802095 165.45729919 -0.20384367 180.48488399 -0.23145839 C195.9288627 -0.25959973 211.37282334 -0.27619463 226.81682664 -0.28226548 C236.33213631 -0.2863639 245.84734778 -0.29926686 255.36262719 -0.3237494 C261.90430073 -0.33971459 268.44592416 -0.34437622 274.98761573 -0.34050413 C278.75120469 -0.33859919 282.51462313 -0.34133591 286.27818108 -0.35761642 C335.34789545 -0.55904284 377.8295545 11.4100806 413.45654297 46.43359375 C443.01889832 76.43550326 457.41740277 117.06583192 457.30273438 158.73632812 C456.77559162 193.93775004 444.41927787 229.38931753 421 256 C420.30519531 256.80308594 419.61039063 257.60617187 418.89453125 258.43359375 C411.51176386 266.80944135 403.69987059 274.81531474 395.2109375 282.07421875 C392.33782016 284.57677502 389.54480864 287.16062593 386.75 289.75 C386.19417236 290.2646582 385.63834473 290.77931641 385.06567383 291.30957031 C383.93414125 292.35747284 382.80271253 293.40548753 381.67138672 294.45361328 C375.50688635 300.15708178 369.31492125 305.83048997 363.0625 311.4375 C358.60713196 315.43517373 354.20916481 319.49200885 349.81665039 323.55834961 C345.77550116 327.29526882 341.69289404 330.98299106 337.59375 334.65625 C334.54108348 337.4146836 331.51915705 340.2050031 328.5 343 C323.8995846 347.25885323 319.2626635 351.47241842 314.59375 355.65625 C311.54108348 358.4146836 308.51915705 361.2050031 305.5 364 C300.8995846 368.25885323 296.2626635 372.47241842 291.59375 376.65625 C288.54108348 379.4146836 285.51915705 382.2050031 282.5 385 C277.8995846 389.25885323 273.2626635 393.47241842 268.59375 397.65625 C265.54108348 400.4146836 262.51915705 403.2050031 259.5 406 C254.8995846 410.25885323 250.2626635 414.47241842 245.59375 418.65625 C242.54108348 421.4146836 239.51915705 424.2050031 236.5 427 C231.8995846 431.25885323 227.2626635 435.47241842 222.59375 439.65625 C219.54108319 442.41468387 216.51917344 445.20502044 213.5 448 C208.87380193 452.28227279 204.21321325 456.52207859 199.51953125 460.73046875 C194.64789755 465.11871554 189.82787676 469.56373809 185 474 C173.72339154 484.36190257 173.72339154 484.36190257 168.0625 489.4375 C163.60713196 493.43517373 159.20916481 497.49200885 154.81665039 501.55834961 C150.77550116 505.29526882 146.69289404 508.98299106 142.59375 512.65625 C139.54108348 515.4146836 136.51915705 518.2050031 133.5 521 C128.8995846 525.25885323 124.2626635 529.47241842 119.59375 533.65625 C116.54108348 536.4146836 113.51915705 539.2050031 110.5 542 C105.8995846 546.25885323 101.2626635 550.47241842 96.59375 554.65625 C93.54108348 557.4146836 90.51915705 560.2050031 87.5 563 C82.90632594 567.25261242 78.27733743 571.46120528 73.61328125 575.63671875 C69.89275583 579.00131947 66.21812939 582.41530504 62.55273438 585.83984375 C62.03388672 586.32195313 61.51503906 586.8040625 60.98046875 587.30078125 C60.52567139 587.72528564 60.07087402 588.14979004 59.60229492 588.5871582 C57.46775141 590.46931626 55.22222627 592.22221898 53 594 C185.99 594.33 318.98 594.66 456 595 C456 646.48 456 697.96 456 751 C401.96021361 751.19383943 347.92044111 751.37667301 293.88054251 751.53537826 C287.49352213 751.55414956 281.10650216 751.57305409 274.71948242 751.59204102 C273.44799843 751.59581856 272.17651444 751.59959611 270.86650064 751.60348812 C250.30739976 751.66488605 229.74835025 751.73706543 209.1892995 751.8132638 C188.07720463 751.89127063 166.96509607 751.95761103 145.85293025 752.01323253 C132.836729 752.04788899 119.82062267 752.09153009 106.80449256 752.14684484 C97.86602087 752.18395699 88.92756045 752.2096868 79.98902807 752.22667392 C74.84015528 752.23678869 69.69142242 752.25172187 64.54261589 752.28024101 C17.71920101 752.53222395 17.71920101 752.53222395 -2.6875 746.3125 C-3.54287354 746.05903809 -4.39824707 745.80557617 -5.27954102 745.54443359 C-29.31055041 738.14173699 -49.79594092 725.19106725 -68 708 C-68.79792969 707.26652344 -69.59585938 706.53304687 -70.41796875 705.77734375 C-94.81767056 682.54137971 -110.59219689 648.42268436 -114 615 C-114.12117187 614.00355469 -114.24234375 613.00710938 -114.3671875 611.98046875 C-116.82913825 587.15079477 -113.61726537 561.40311025 -105 538 C-104.74879395 537.31631348 -104.49758789 536.63262695 -104.23876953 535.92822266 C-95.64491819 512.99900631 -82.15906579 490.95247025 -63.32421875 475.00390625 C-60.35854543 472.44694757 -57.49420323 469.78920086 -54.625 467.125 C-49.96109742 462.80196734 -45.26304959 458.52182565 -40.52734375 454.27734375 C-37.66917797 451.70190225 -34.83289739 449.10314236 -32 446.5 C-27.54667383 442.40830793 -23.06340112 438.35177023 -18.5625 434.3125 C-15.17601679 431.25640539 -11.81755186 428.17014388 -8.45874023 425.08374023 C-5.34366875 422.22397796 -2.21148325 419.38484641 0.9375 416.5625 C4.82370598 413.07551903 8.66842807 409.54668015 12.5 406 C17.12352611 401.72025045 21.78092335 397.48241392 26.47265625 393.27734375 C29.33082203 390.70190225 32.16710261 388.10314236 35 385.5 C39.45332617 381.40830793 43.93659888 377.35177023 48.4375 373.3125 C51.30600409 370.72384997 54.1547665 368.11414854 57 365.5 C61.45335487 361.40833893 65.93659854 357.35177054 70.4375 353.3125 C73.30600409 350.72384997 76.1547665 348.11414854 79 345.5 C83.45335487 341.40833893 87.93659854 337.35177054 92.4375 333.3125 C95.30600409 330.72384997 98.1547665 328.11414854 101 325.5 C104.64929525 322.14709421 108.31169568 318.81001669 112 315.5 C117.70661694 310.37680716 123.35315354 305.18880061 129 300 C135.45096808 294.07230436 141.91718716 288.1640628 148.4375 282.3125 C151.30600409 279.72384997 154.1547665 277.11414854 157 274.5 C161.45335487 270.40833893 165.93659854 266.35177054 170.4375 262.3125 C173.30600409 259.72384997 176.1547665 257.11414854 179 254.5 C183.45335487 250.40833893 187.93659854 246.35177054 192.4375 242.3125 C195.30600409 239.72384997 198.1547665 237.11414854 201 234.5 C205.45335487 230.40833893 209.93659854 226.35177054 214.4375 222.3125 C217.30600409 219.72384997 220.1547665 217.11414854 223 214.5 C227.45335487 210.40833893 231.93659854 206.35177054 236.4375 202.3125 C239.82398321 199.25640539 243.18244814 196.17014388 246.54125977 193.08374023 C249.65633125 190.22397796 252.78851675 187.38484641 255.9375 184.5625 C260.38475963 180.57210171 264.77518641 176.52313889 269.15917969 172.46362305 C273.42809465 168.51532112 277.73826054 164.61687356 282.07421875 160.7421875 C283.41488757 159.52933092 284.72163895 158.27836105 286 157 C144.43 156.505 144.43 156.505 0 156 C0 104.52 0 53.04 0 0 Z " fill="#A274EA" transform="translate(933,245)"/>
<path d="M0 0 C53.46 0 106.92 0 162 0 C162 51.15 162 102.3 162 155 C108.54 155 55.08 155 0 155 C0 103.85 0 52.7 0 0 Z " fill="#FFC11A" transform="translate(2034,246)"/>
<path d="M0 0 C53.46 0 106.92 0 162 0 C162 51.15 162 102.3 162 155 C108.54 155 55.08 155 0 155 C0 103.85 0 52.7 0 0 Z " fill="#FFC11A" transform="translate(629,246)"/>
</svg>
