<svg id="svgQrWrapper" viewBox="0 0 300 300" xmlns="http://www.w3.org/2000/svg" xmlns:xlink="http://www.w3.org/1999/xlink" width="300" height="300" style="width: 100%; height: 100%; background-color: transparent;"><svg><g transform="translate(9, 9)scale(0.95)" fill="none"><svg width="300" height="300"><style>.background-color{ fill: #fff; }.dot-color{ fill: #ffffff; }.corners-square-color-0-0{ fill: #ffffff; }.corners-dot-color-0-0{ fill: #ffffff; }.corners-square-color-1-0{ fill: #ffffff; }.corners-dot-color-1-0{ fill: #ffffff; }.corners-square-color-0-1{ fill: #ffffff; }.corners-dot-color-0-1{ fill: #ffffff; }</style><defs/><g class="dot-color"><path d="M 5 85v 10h 5a 5 5, 0, 0, 0, 0 -10" transform="rotate(180,10,90)"/><path d="M 5 125v 10h 5a 5 5, 0, 0, 0, 0 -10" transform="rotate(180,10,130)"/><path d="M 5 155v 10h 5a 5 5, 0, 0, 0, 0 -10" transform="rotate(-90,10,160)"/><rect x="5" y="165" width="10" height="10" transform="rotate(0,10,170)"/><path d="M 5 175v 10h 10v -5a 5 5, 0, 0, 0, -5 -5" transform="rotate(180,10,180)"/><circle cx="10" cy="210" r="5" transform="rotate(0,10,210)"/><rect x="15" y="85" width="10" height="10" transform="rotate(0,20,90)"/><rect x="15" y="95" width="10" height="10" transform="rotate(0,20,100)"/><rect x="15" y="105" width="10" height="10" transform="rotate(0,20,110)"/><rect x="15" y="115" width="10" height="10" transform="rotate(0,20,120)"/><path d="M 15 125v 10h 10v -5a 5 5, 0, 0, 0, -5 -5" transform="rotate(90,20,130)"/><rect x="15" y="165" width="10" height="10" transform="rotate(0,20,170)"/><rect x="15" y="175" width="10" height="10" transform="rotate(0,20,180)"/><rect x="15" y="185" width="10" height="10" transform="rotate(0,20,190)"/><path d="M 15 195v 10h 10v -5a 5 5, 0, 0, 0, -5 -5" transform="rotate(180,20,200)"/><path d="M 25 85v 10h 5a 5 5, 0, 0, 0, 0 -10" transform="rotate(0,30,90)"/><path d="M 25 155v 10h 5a 5 5, 0, 0, 0, 0 -10" transform="rotate(-90,30,160)"/><rect x="25" y="165" width="10" height="10" transform="rotate(0,30,170)"/><path d="M 25 195v 10h 5a 5 5, 0, 0, 0, 0 -10" transform="rotate(0,30,200)"/><path d="M 35 105v 10h 5a 5 5, 0, 0, 0, 0 -10" transform="rotate(-90,40,110)"/><rect x="35" y="115" width="10" height="10" transform="rotate(0,40,120)"/><path d="M 35 125v 10h 10v -5a 5 5, 0, 0, 0, -5 -5" transform="rotate(180,40,130)"/><rect x="35" y="165" width="10" height="10" transform="rotate(0,40,170)"/><circle cx="50" cy="90" r="5" transform="rotate(0,50,90)"/><path d="M 45 125v 10h 5a 5 5, 0, 0, 0, 0 -10" transform="rotate(0,50,130)"/><path d="M 45 145v 10h 5a 5 5, 0, 0, 0, 0 -10" transform="rotate(-90,50,150)"/><rect x="45" y="155" width="10" height="10" transform="rotate(0,50,160)"/><rect x="45" y="165" width="10" height="10" transform="rotate(0,50,170)"/><rect x="45" y="175" width="10" height="10" transform="rotate(0,50,180)"/><rect x="45" y="185" width="10" height="10" transform="rotate(0,50,190)"/><rect x="45" y="195" width="10" height="10" transform="rotate(0,50,200)"/><path d="M 45 205v 10h 10v -5a 5 5, 0, 0, 0, -5 -5" transform="rotate(180,50,210)"/><path d="M 55 95v 10h 5a 5 5, 0, 0, 0, 0 -10" transform="rotate(-90,60,100)"/><rect x="55" y="105" width="10" height="10" transform="rotate(0,60,110)"/><path d="M 55 115v 10h 5a 5 5, 0, 0, 0, 0 -10" transform="rotate(90,60,120)"/><path d="M 55 155v 10h 10v -5a 5 5, 0, 0, 0, -5 -5" transform="rotate(0,60,160)"/><rect x="55" y="165" width="10" height="10" transform="rotate(0,60,170)"/><rect x="55" y="175" width="10" height="10" transform="rotate(0,60,180)"/><rect x="55" y="185" width="10" height="10" transform="rotate(0,60,190)"/><rect x="55" y="205" width="10" height="10" transform="rotate(0,60,210)"/><circle cx="70" cy="90" r="5" transform="rotate(0,70,90)"/><rect x="65" y="105" width="10" height="10" transform="rotate(0,70,110)"/><path d="M 65 125v 10h 5a 5 5, 0, 0, 0, 0 -10" transform="rotate(180,70,130)"/><circle cx="70" cy="150" r="5" transform="rotate(0,70,150)"/><rect x="65" y="165" width="10" height="10" transform="rotate(0,70,170)"/><path d="M 65 185v 10h 5a 5 5, 0, 0, 0, 0 -10" transform="rotate(0,70,190)"/><rect x="65" y="205" width="10" height="10" transform="rotate(0,70,210)"/><path d="M 75 95v 10h 5a 5 5, 0, 0, 0, 0 -10" transform="rotate(-90,80,100)"/><rect x="75" y="105" width="10" height="10" transform="rotate(0,80,110)"/><path d="M 75 125v 10h 10v -5a 5 5, 0, 0, 0, -5 -5" transform="rotate(0,80,130)"/><path d="M 75 135v 10h 10v -5a 5 5, 0, 0, 0, -5 -5" transform="rotate(180,80,140)"/><path d="M 75 155v 10h 5a 5 5, 0, 0, 0, 0 -10" transform="rotate(-90,80,160)"/><path d="M 75 165v 10h 10v -5a 5 5, 0, 0, 0, -5 -5" transform="rotate(90,80,170)"/><path d="M 75 195v 10h 10v -5a 5 5, 0, 0, 0, -5 -5" transform="rotate(-90,80,200)"/><path d="M 75 205v 10h 10v -5a 5 5, 0, 0, 0, -5 -5" transform="rotate(90,80,210)"/><circle cx="90" cy="10" r="5" transform="rotate(0,90,10)"/><path d="M 85 35v 10h 5a 5 5, 0, 0, 0, 0 -10" transform="rotate(-90,90,40)"/><rect x="85" y="45" width="10" height="10" transform="rotate(0,90,50)"/><rect x="85" y="55" width="10" height="10" transform="rotate(0,90,60)"/><rect x="85" y="65" width="10" height="10" transform="rotate(0,90,70)"/><rect x="85" y="75" width="10" height="10" transform="rotate(0,90,80)"/><path d="M 85 85v 10h 5a 5 5, 0, 0, 0, 0 -10" transform="rotate(90,90,90)"/><rect x="85" y="105" width="10" height="10" transform="rotate(0,90,110)"/><path d="M 85 115v 10h 5a 5 5, 0, 0, 0, 0 -10" transform="rotate(90,90,120)"/><rect x="85" y="135" width="10" height="10" transform="rotate(0,90,140)"/><circle cx="90" cy="180" r="5" transform="rotate(0,90,180)"/><path d="M 85 195v 10h 5a 5 5, 0, 0, 0, 0 -10" transform="rotate(0,90,200)"/><circle cx="90" cy="220" r="5" transform="rotate(0,90,220)"/><path d="M 85 245v 10h 5a 5 5, 0, 0, 0, 0 -10" transform="rotate(180,90,250)"/><path d="M 85 265v 10h 10v -5a 5 5, 0, 0, 0, -5 -5" transform="rotate(-90,90,270)"/><rect x="85" y="275" width="10" height="10" transform="rotate(0,90,280)"/><path d="M 85 285v 10h 5a 5 5, 0, 0, 0, 0 -10" transform="rotate(90,90,290)"/><path d="M 95 25v 10h 5a 5 5, 0, 0, 0, 0 -10" transform="rotate(180,100,30)"/><rect x="95" y="45" width="10" height="10" transform="rotate(0,100,50)"/><path d="M 95 105v 10h 5a 5 5, 0, 0, 0, 0 -10" transform="rotate(0,100,110)"/><rect x="95" y="135" width="10" height="10" transform="rotate(0,100,140)"/><path d="M 95 165v 10h 5a 5 5, 0, 0, 0, 0 -10" transform="rotate(180,100,170)"/><rect x="95" y="245" width="10" height="10" transform="rotate(0,100,250)"/><rect x="95" y="265" width="10" height="10" transform="rotate(0,100,270)"/><path d="M 95 275v 10h 10v -5a 5 5, 0, 0, 0, -5 -5" transform="rotate(90,100,280)"/><path d="M 105 15v 10h 5a 5 5, 0, 0, 0, 0 -10" transform="rotate(-90,110,20)"/><path d="M 105 25v 10h 10v -5a 5 5, 0, 0, 0, -5 -5" transform="rotate(90,110,30)"/><path d="M 105 45v 10h 5a 5 5, 0, 0, 0, 0 -10" transform="rotate(0,110,50)"/><path d="M 105 65v 10h 5a 5 5, 0, 0, 0, 0 -10" transform="rotate(-90,110,70)"/><path d="M 105 75v 10h 10v -5a 5 5, 0, 0, 0, -5 -5" transform="rotate(180,110,80)"/><circle cx="110" cy="100" r="5" transform="rotate(0,110,100)"/><rect x="105" y="135" width="10" height="10" transform="rotate(0,110,140)"/><path d="M 105 155v 10h 5a 5 5, 0, 0, 0, 0 -10" transform="rotate(-90,110,160)"/><rect x="105" y="165" width="10" height="10" transform="rotate(0,110,170)"/><path d="M 105 225v 10h 5a 5 5, 0, 0, 0, 0 -10" transform="rotate(180,110,230)"/><rect x="105" y="245" width="10" height="10" transform="rotate(0,110,250)"/><path d="M 105 265v 10h 5a 5 5, 0, 0, 0, 0 -10" transform="rotate(0,110,270)"/><rect x="115" y="75" width="10" height="10" transform="rotate(0,120,80)"/><path d="M 115 115v 10h 10v -5a 5 5, 0, 0, 0, -5 -5" transform="rotate(-90,120,120)"/><rect x="115" y="125" width="10" height="10" transform="rotate(0,120,130)"/><rect x="115" y="135" width="10" height="10" transform="rotate(0,120,140)"/><rect x="115" y="165" width="10" height="10" transform="rotate(0,120,170)"/><rect x="115" y="175" width="10" height="10" transform="rotate(0,120,180)"/><rect x="115" y="185" width="10" height="10" transform="rotate(0,120,190)"/><rect x="115" y="195" width="10" height="10" transform="rotate(0,120,200)"/><rect x="115" y="205" width="10" height="10" transform="rotate(0,120,210)"/><rect x="115" y="215" width="10" height="10" transform="rotate(0,120,220)"/><rect x="115" y="225" width="10" height="10" transform="rotate(0,120,230)"/><path d="M 115 245v 10h 10v -5a 5 5, 0, 0, 0, -5 -5" transform="rotate(0,120,250)"/><path d="M 115 255v 10h 5a 5 5, 0, 0, 0, 0 -10" transform="rotate(90,120,260)"/><path d="M 115 285v 10h 5a 5 5, 0, 0, 0, 0 -10" transform="rotate(180,120,290)"/><path d="M 125 25v 10h 10v -5a 5 5, 0, 0, 0, -5 -5" transform="rotate(-90,130,30)"/><rect x="125" y="35" width="10" height="10" transform="rotate(0,130,40)"/><path d="M 125 45v 10h 5a 5 5, 0, 0, 0, 0 -10" transform="rotate(90,130,50)"/><path d="M 125 65v 10h 5a 5 5, 0, 0, 0, 0 -10" transform="rotate(-90,130,70)"/><path d="M 125 75v 10h 10v -5a 5 5, 0, 0, 0, -5 -5" transform="rotate(90,130,80)"/><rect x="125" y="115" width="10" height="10" transform="rotate(0,130,120)"/><rect x="125" y="135" width="10" height="10" transform="rotate(0,130,140)"/><path d="M 125 155v 10h 5a 5 5, 0, 0, 0, 0 -10" transform="rotate(-90,130,160)"/><rect x="125" y="165" width="10" height="10" transform="rotate(0,130,170)"/><rect x="125" y="205" width="10" height="10" transform="rotate(0,130,210)"/><rect x="125" y="225" width="10" height="10" transform="rotate(0,130,230)"/><path d="M 125 235v 10h 10v -5a 5 5, 0, 0, 0, -5 -5" transform="rotate(180,130,240)"/><rect x="125" y="285" width="10" height="10" transform="rotate(0,130,290)"/><path d="M 135 5v 10h 5a 5 5, 0, 0, 0, 0 -10" transform="rotate(-90,140,10)"/><rect x="135" y="15" width="10" height="10" transform="rotate(0,140,20)"/><rect x="135" y="25" width="10" height="10" transform="rotate(0,140,30)"/><path d="M 135 35v 10h 10v -5a 5 5, 0, 0, 0, -5 -5" transform="rotate(90,140,40)"/><circle cx="140" cy="100" r="5" transform="rotate(0,140,100)"/><path d="M 135 115v 10h 5a 5 5, 0, 0, 0, 0 -10" transform="rotate(0,140,120)"/><rect x="135" y="135" width="10" height="10" transform="rotate(0,140,140)"/><path d="M 135 145v 10h 5a 5 5, 0, 0, 0, 0 -10" transform="rotate(90,140,150)"/><rect x="135" y="165" width="10" height="10" transform="rotate(0,140,170)"/><rect x="135" y="205" width="10" height="10" transform="rotate(0,140,210)"/><rect x="135" y="215" width="10" height="10" transform="rotate(0,140,220)"/><rect x="135" y="225" width="10" height="10" transform="rotate(0,140,230)"/><rect x="135" y="235" width="10" height="10" transform="rotate(0,140,240)"/><rect x="135" y="245" width="10" height="10" transform="rotate(0,140,250)"/><rect x="135" y="255" width="10" height="10" transform="rotate(0,140,260)"/><rect x="135" y="265" width="10" height="10" transform="rotate(0,140,270)"/><rect x="135" y="275" width="10" height="10" transform="rotate(0,140,280)"/><rect x="135" y="285" width="10" height="10" transform="rotate(0,140,290)"/><rect x="145" y="15" width="10" height="10" transform="rotate(0,150,20)"/><path d="M 145 55v 10h 10v -5a 5 5, 0, 0, 0, -5 -5" transform="rotate(-90,150,60)"/><rect x="145" y="65" width="10" height="10" transform="rotate(0,150,70)"/><path d="M 145 75v 10h 10v -5a 5 5, 0, 0, 0, -5 -5" transform="rotate(180,150,80)"/><path d="M 145 125v 10h 5a 5 5, 0, 0, 0, 0 -10" transform="rotate(-90,150,130)"/><path d="M 145 135v 10h 10v -5a 5 5, 0, 0, 0, -5 -5" transform="rotate(90,150,140)"/><path d="M 145 165v 10h 5a 5 5, 0, 0, 0, 0 -10" transform="rotate(0,150,170)"/><path d="M 145 195v 10h 5a 5 5, 0, 0, 0, 0 -10" transform="rotate(-90,150,200)"/><rect x="145" y="205" width="10" height="10" transform="rotate(0,150,210)"/><rect x="145" y="215" width="10" height="10" transform="rotate(0,150,220)"/><rect x="145" y="225" width="10" height="10" transform="rotate(0,150,230)"/><rect x="145" y="235" width="10" height="10" transform="rotate(0,150,240)"/><path d="M 145 245v 10h 10v -5a 5 5, 0, 0, 0, -5 -5" transform="rotate(90,150,250)"/><rect x="145" y="265" width="10" height="10" transform="rotate(0,150,270)"/><rect x="145" y="285" width="10" height="10" transform="rotate(0,150,290)"/><path d="M 155 5v 10h 10v -5a 5 5, 0, 0, 0, -5 -5" transform="rotate(-90,160,10)"/><path d="M 155 15v 10h 10v -5a 5 5, 0, 0, 0, -5 -5" transform="rotate(90,160,20)"/><circle cx="160" cy="40" r="5" transform="rotate(0,160,40)"/><rect x="155" y="55" width="10" height="10" transform="rotate(0,160,60)"/><path d="M 155 75v 10h 5a 5 5, 0, 0, 0, 0 -10" transform="rotate(0,160,80)"/><path d="M 155 95v 10h 5a 5 5, 0, 0, 0, 0 -10" transform="rotate(180,160,100)"/><circle cx="160" cy="160" r="5" transform="rotate(0,160,160)"/><path d="M 155 185v 10h 5a 5 5, 0, 0, 0, 0 -10" transform="rotate(180,160,190)"/><path d="M 155 215v 10h 10v -5a 5 5, 0, 0, 0, -5 -5" transform="rotate(0,160,220)"/><rect x="155" y="225" width="10" height="10" transform="rotate(0,160,230)"/><rect x="155" y="235" width="10" height="10" transform="rotate(0,160,240)"/><path d="M 155 265v 10h 5a 5 5, 0, 0, 0, 0 -10" transform="rotate(0,160,270)"/><path d="M 155 285v 10h 5a 5 5, 0, 0, 0, 0 -10" transform="rotate(0,160,290)"/><rect x="165" y="5" width="10" height="10" transform="rotate(0,170,10)"/><rect x="165" y="55" width="10" height="10" transform="rotate(0,170,60)"/><path d="M 165 65v 10h 5a 5 5, 0, 0, 0, 0 -10" transform="rotate(90,170,70)"/><rect x="165" y="95" width="10" height="10" transform="rotate(0,170,100)"/><rect x="165" y="105" width="10" height="10" transform="rotate(0,170,110)"/><path d="M 165 115v 10h 5a 5 5, 0, 0, 0, 0 -10" transform="rotate(90,170,120)"/><path d="M 165 145v 10h 5a 5 5, 0, 0, 0, 0 -10" transform="rotate(180,170,150)"/><path d="M 165 165v 10h 5a 5 5, 0, 0, 0, 0 -10" transform="rotate(180,170,170)"/><path d="M 165 185v 10h 10v -5a 5 5, 0, 0, 0, -5 -5" transform="rotate(0,170,190)"/><rect x="165" y="195" width="10" height="10" transform="rotate(0,170,200)"/><path d="M 165 205v 10h 10v -5a 5 5, 0, 0, 0, -5 -5" transform="rotate(180,170,210)"/><path d="M 165 235v 10h 5a 5 5, 0, 0, 0, 0 -10" transform="rotate(0,170,240)"/><circle cx="170" cy="260" r="5" transform="rotate(0,170,260)"/><rect x="175" y="5" width="10" height="10" transform="rotate(0,180,10)"/><rect x="175" y="15" width="10" height="10" transform="rotate(0,180,20)"/><path d="M 175 25v 10h 10v -5a 5 5, 0, 0, 0, -5 -5" transform="rotate(180,180,30)"/><path d="M 175 45v 10h 5a 5 5, 0, 0, 0, 0 -10" transform="rotate(-90,180,50)"/><rect x="175" y="55" width="10" height="10" transform="rotate(0,180,60)"/><path d="M 175 75v 10h 5a 5 5, 0, 0, 0, 0 -10" transform="rotate(180,180,80)"/><rect x="175" y="95" width="10" height="10" transform="rotate(0,180,100)"/><path d="M 175 135v 10h 5a 5 5, 0, 0, 0, 0 -10" transform="rotate(-90,180,140)"/><path d="M 175 145v 10h 10v -5a 5 5, 0, 0, 0, -5 -5" transform="rotate(90,180,150)"/><path d="M 175 165v 10h 10v -5a 5 5, 0, 0, 0, -5 -5" transform="rotate(0,180,170)"/><path d="M 175 175v 10h 5a 5 5, 0, 0, 0, 0 -10" transform="rotate(90,180,180)"/><rect x="175" y="195" width="10" height="10" transform="rotate(0,180,200)"/><rect x="175" y="205" width="10" height="10" transform="rotate(0,180,210)"/><path d="M 175 215v 10h 10v -5a 5 5, 0, 0, 0, -5 -5" transform="rotate(180,180,220)"/><circle cx="180" cy="250" r="5" transform="rotate(0,180,250)"/><path d="M 175 265v 10h 5a 5 5, 0, 0, 0, 0 -10" transform="rotate(-90,180,270)"/><path d="M 175 275v 10h 5a 5 5, 0, 0, 0, 0 -10" transform="rotate(90,180,280)"/><rect x="185" y="5" width="10" height="10" transform="rotate(0,190,10)"/><rect x="185" y="15" width="10" height="10" transform="rotate(0,190,20)"/><rect x="185" y="25" width="10" height="10" transform="rotate(0,190,30)"/><rect x="185" y="55" width="10" height="10" transform="rotate(0,190,60)"/><rect x="185" y="65" width="10" height="10" transform="rotate(0,190,70)"/><rect x="185" y="75" width="10" height="10" transform="rotate(0,190,80)"/><rect x="185" y="85" width="10" height="10" transform="rotate(0,190,90)"/><rect x="185" y="95" width="10" height="10" transform="rotate(0,190,100)"/><rect x="185" y="105" width="10" height="10" transform="rotate(0,190,110)"/><rect x="185" y="115" width="10" height="10" transform="rotate(0,190,120)"/><path d="M 185 125v 10h 5a 5 5, 0, 0, 0, 0 -10" transform="rotate(90,190,130)"/><circle cx="190" cy="160" r="5" transform="rotate(0,190,160)"/><path d="M 185 195v 10h 5a 5 5, 0, 0, 0, 0 -10" transform="rotate(0,190,200)"/><path d="M 185 215v 10h 10v -5a 5 5, 0, 0, 0, -5 -5" transform="rotate(0,190,220)"/><rect x="185" y="225" width="10" height="10" transform="rotate(0,190,230)"/><path d="M 185 235v 10h 10v -5a 5 5, 0, 0, 0, -5 -5" transform="rotate(180,190,240)"/><path d="M 185 255v 10h 5a 5 5, 0, 0, 0, 0 -10" transform="rotate(180,190,260)"/><circle cx="190" cy="290" r="5" transform="rotate(0,190,290)"/><rect x="195" y="5" width="10" height="10" transform="rotate(0,200,10)"/><rect x="195" y="15" width="10" height="10" transform="rotate(0,200,20)"/><path d="M 195 25v 10h 10v -5a 5 5, 0, 0, 0, -5 -5" transform="rotate(90,200,30)"/><rect x="195" y="55" width="10" height="10" transform="rotate(0,200,60)"/><path d="M 195 105v 10h 10v -5a 5 5, 0, 0, 0, -5 -5" transform="rotate(0,200,110)"/><rect x="195" y="115" width="10" height="10" transform="rotate(0,200,120)"/><path d="M 195 145v 10h 5a 5 5, 0, 0, 0, 0 -10" transform="rotate(180,200,150)"/><rect x="195" y="225" width="10" height="10" transform="rotate(0,200,230)"/><rect x="195" y="235" width="10" height="10" transform="rotate(0,200,240)"/><rect x="195" y="255" width="10" height="10" transform="rotate(0,200,260)"/><path d="M 195 265v 10h 10v -5a 5 5, 0, 0, 0, -5 -5" transform="rotate(180,200,270)"/><path d="M 205 5v 10h 10v -5a 5 5, 0, 0, 0, -5 -5" transform="rotate(0,210,10)"/><path d="M 205 15v 10h 10v -5a 5 5, 0, 0, 0, -5 -5" transform="rotate(90,210,20)"/><circle cx="210" cy="40" r="5" transform="rotate(0,210,40)"/><path d="M 205 55v 10h 10v -5a 5 5, 0, 0, 0, -5 -5" transform="rotate(0,210,60)"/><rect x="205" y="65" width="10" height="10" transform="rotate(0,210,70)"/><rect x="205" y="75" width="10" height="10" transform="rotate(0,210,80)"/><rect x="205" y="85" width="10" height="10" transform="rotate(0,210,90)"/><path d="M 205 95v 10h 5a 5 5, 0, 0, 0, 0 -10" transform="rotate(90,210,100)"/><path d="M 205 115v 10h 5a 5 5, 0, 0, 0, 0 -10" transform="rotate(0,210,120)"/><path d="M 205 135v 10h 5a 5 5, 0, 0, 0, 0 -10" transform="rotate(-90,210,140)"/><rect x="205" y="145" width="10" height="10" transform="rotate(0,210,150)"/><rect x="205" y="155" width="10" height="10" transform="rotate(0,210,160)"/><path d="M 205 165v 10h 5a 5 5, 0, 0, 0, 0 -10" transform="rotate(90,210,170)"/><path d="M 205 205v 10h 10v -5a 5 5, 0, 0, 0, -5 -5" transform="rotate(-90,210,210)"/><rect x="205" y="215" width="10" height="10" transform="rotate(0,210,220)"/><rect x="205" y="225" width="10" height="10" transform="rotate(0,210,230)"/><rect x="205" y="235" width="10" height="10" transform="rotate(0,210,240)"/><rect x="205" y="245" width="10" height="10" transform="rotate(0,210,250)"/><rect x="205" y="255" width="10" height="10" transform="rotate(0,210,260)"/><rect x="205" y="265" width="10" height="10" transform="rotate(0,210,270)"/><path d="M 205 275v 10h 5a 5 5, 0, 0, 0, 0 -10" transform="rotate(90,210,280)"/><rect x="215" y="85" width="10" height="10" transform="rotate(0,220,90)"/><path d="M 215 105v 10h 5a 5 5, 0, 0, 0, 0 -10" transform="rotate(180,220,110)"/><rect x="215" y="145" width="10" height="10" transform="rotate(0,220,150)"/><rect x="215" y="205" width="10" height="10" transform="rotate(0,220,210)"/><rect x="215" y="245" width="10" height="10" transform="rotate(0,220,250)"/><rect x="215" y="255" width="10" height="10" transform="rotate(0,220,260)"/><rect x="225" y="85" width="10" height="10" transform="rotate(0,230,90)"/><rect x="225" y="95" width="10" height="10" transform="rotate(0,230,100)"/><path d="M 225 105v 10h 10v -5a 5 5, 0, 0, 0, -5 -5" transform="rotate(90,230,110)"/><path d="M 225 125v 10h 5a 5 5, 0, 0, 0, 0 -10" transform="rotate(180,230,130)"/><rect x="225" y="145" width="10" height="10" transform="rotate(0,230,150)"/><path d="M 225 175v 10h 5a 5 5, 0, 0, 0, 0 -10" transform="rotate(180,230,180)"/><path d="M 225 195v 10h 10v -5a 5 5, 0, 0, 0, -5 -5" transform="rotate(-90,230,200)"/><rect x="225" y="205" width="10" height="10" transform="rotate(0,230,210)"/><circle cx="230" cy="230" r="5" transform="rotate(0,230,230)"/><rect x="225" y="245" width="10" height="10" transform="rotate(0,230,250)"/><path d="M 225 255v 10h 10v -5a 5 5, 0, 0, 0, -5 -5" transform="rotate(90,230,260)"/><rect x="235" y="85" width="10" height="10" transform="rotate(0,240,90)"/><path d="M 235 95v 10h 10v -5a 5 5, 0, 0, 0, -5 -5" transform="rotate(90,240,100)"/><path d="M 235 125v 10h 5a 5 5, 0, 0, 0, 0 -10" transform="rotate(0,240,130)"/><rect x="235" y="145" width="10" height="10" transform="rotate(0,240,150)"/><path d="M 235 155v 10h 5a 5 5, 0, 0, 0, 0 -10" transform="rotate(90,240,160)"/><rect x="235" y="175" width="10" height="10" transform="rotate(0,240,180)"/><rect x="235" y="195" width="10" height="10" transform="rotate(0,240,200)"/><rect x="235" y="205" width="10" height="10" transform="rotate(0,240,210)"/><rect x="235" y="245" width="10" height="10" transform="rotate(0,240,250)"/><circle cx="240" cy="290" r="5" transform="rotate(0,240,290)"/><rect x="245" y="85" width="10" height="10" transform="rotate(0,250,90)"/><circle cx="250" cy="120" r="5" transform="rotate(0,250,120)"/><path d="M 245 135v 10h 5a 5 5, 0, 0, 0, 0 -10" transform="rotate(-90,250,140)"/><path d="M 245 145v 10h 10v -5a 5 5, 0, 0, 0, -5 -5" transform="rotate(90,250,150)"/><rect x="245" y="175" width="10" height="10" transform="rotate(0,250,180)"/><rect x="245" y="185" width="10" height="10" transform="rotate(0,250,190)"/><rect x="245" y="195" width="10" height="10" transform="rotate(0,250,200)"/><rect x="245" y="205" width="10" height="10" transform="rotate(0,250,210)"/><rect x="245" y="215" width="10" height="10" transform="rotate(0,250,220)"/><rect x="245" y="225" width="10" height="10" transform="rotate(0,250,230)"/><rect x="245" y="235" width="10" height="10" transform="rotate(0,250,240)"/><rect x="245" y="245" width="10" height="10" transform="rotate(0,250,250)"/><path d="M 245 255v 10h 5a 5 5, 0, 0, 0, 0 -10" transform="rotate(90,250,260)"/><path d="M 255 85v 10h 10v -5a 5 5, 0, 0, 0, -5 -5" transform="rotate(0,260,90)"/><rect x="255" y="95" width="10" height="10" transform="rotate(0,260,100)"/><path d="M 255 105v 10h 10v -5a 5 5, 0, 0, 0, -5 -5" transform="rotate(180,260,110)"/><rect x="255" y="175" width="10" height="10" transform="rotate(0,260,180)"/><path d="M 255 185v 10h 10v -5a 5 5, 0, 0, 0, -5 -5" transform="rotate(90,260,190)"/><path d="M 255 275v 10h 5a 5 5, 0, 0, 0, 0 -10" transform="rotate(180,260,280)"/><rect x="265" y="95" width="10" height="10" transform="rotate(0,270,100)"/><rect x="265" y="105" width="10" height="10" transform="rotate(0,270,110)"/><rect x="265" y="115" width="10" height="10" transform="rotate(0,270,120)"/><path d="M 265 125v 10h 5a 5 5, 0, 0, 0, 0 -10" transform="rotate(90,270,130)"/><circle cx="270" cy="160" r="5" transform="rotate(0,270,160)"/><rect x="265" y="175" width="10" height="10" transform="rotate(0,270,180)"/><circle cx="270" cy="200" r="5" transform="rotate(0,270,200)"/><path d="M 265 215v 10h 5a 5 5, 0, 0, 0, 0 -10" transform="rotate(180,270,220)"/><path d="M 265 245v 10h 5a 5 5, 0, 0, 0, 0 -10" transform="rotate(180,270,250)"/><path d="M 265 265v 10h 10v -5a 5 5, 0, 0, 0, -5 -5" transform="rotate(-90,270,270)"/><rect x="265" y="275" width="10" height="10" transform="rotate(0,270,280)"/><path d="M 265 285v 10h 10v -5a 5 5, 0, 0, 0, -5 -5" transform="rotate(180,270,290)"/><path d="M 275 95v 10h 10v -5a 5 5, 0, 0, 0, -5 -5" transform="rotate(0,280,100)"/><rect x="275" y="105" width="10" height="10" transform="rotate(0,280,110)"/><rect x="275" y="115" width="10" height="10" transform="rotate(0,280,120)"/><path d="M 275 165v 10h 5a 5 5, 0, 0, 0, 0 -10" transform="rotate(-90,280,170)"/><rect x="275" y="175" width="10" height="10" transform="rotate(0,280,180)"/><path d="M 275 185v 10h 5a 5 5, 0, 0, 0, 0 -10" transform="rotate(90,280,190)"/><rect x="275" y="215" width="10" height="10" transform="rotate(0,280,220)"/><path d="M 275 235v 10h 10v -5a 5 5, 0, 0, 0, -5 -5" transform="rotate(-90,280,240)"/><rect x="275" y="245" width="10" height="10" transform="rotate(0,280,250)"/><rect x="275" y="255" width="10" height="10" transform="rotate(0,280,260)"/><path d="M 275 265v 10h 10v -5a 5 5, 0, 0, 0, -5 -5" transform="rotate(90,280,270)"/><path d="M 275 285v 10h 5a 5 5, 0, 0, 0, 0 -10" transform="rotate(0,280,290)"/><circle cx="290" cy="90" r="5" transform="rotate(0,290,90)"/><path d="M 285 115v 10h 5a 5 5, 0, 0, 0, 0 -10" transform="rotate(0,290,120)"/><path d="M 285 145v 10h 5a 5 5, 0, 0, 0, 0 -10" transform="rotate(-90,290,150)"/><path d="M 285 155v 10h 5a 5 5, 0, 0, 0, 0 -10" transform="rotate(90,290,160)"/><path d="M 285 175v 10h 5a 5 5, 0, 0, 0, 0 -10" transform="rotate(0,290,180)"/><path d="M 285 195v 10h 5a 5 5, 0, 0, 0, 0 -10" transform="rotate(-90,290,200)"/><rect x="285" y="205" width="10" height="10" transform="rotate(0,290,210)"/><rect x="285" y="215" width="10" height="10" transform="rotate(0,290,220)"/><rect x="285" y="225" width="10" height="10" transform="rotate(0,290,230)"/><rect x="285" y="235" width="10" height="10" transform="rotate(0,290,240)"/><rect x="285" y="245" width="10" height="10" transform="rotate(0,290,250)"/><path d="M 285 255v 10h 10v -5a 5 5, 0, 0, 0, -5 -5" transform="rotate(90,290,260)"/></g><g class="green-dots"/><g class="corners-square-color-0-0"><path clip-rule="evenodd" d="M 5 15v 50a 10 10, 0, 0, 0, 10 10h 50a 10 10, 0, 0, 0, 10 -10v -50a 10 10, 0, 0, 0, -10 -10h -50a 10 10, 0, 0, 0, -10 10zM 20 15h 40a 5 5, 0, 0, 1, 5 5v 40a 5 5, 0, 0, 1, -5 5h -40a 5 5, 0, 0, 1, -5 -5v -40a 5 5, 0, 0, 1, 5 -5z" transform="rotate(0,40,40)"/></g><g class="corners-dot-color-0-0"><rect x="25" y="25" width="30" height="30" rx="7.5" ry="7.5" transform="rotate(0,40,40)"/></g><g class="corners-square-color-1-0"><path clip-rule="evenodd" d="M 225 15v 50a 10 10, 0, 0, 0, 10 10h 50a 10 10, 0, 0, 0, 10 -10v -50a 10 10, 0, 0, 0, -10 -10h -50a 10 10, 0, 0, 0, -10 10zM 240 15h 40a 5 5, 0, 0, 1, 5 5v 40a 5 5, 0, 0, 1, -5 5h -40a 5 5, 0, 0, 1, -5 -5v -40a 5 5, 0, 0, 1, 5 -5z" transform="rotate(90,260,40)"/></g><g class="corners-dot-color-1-0"><rect x="245" y="25" width="30" height="30" rx="7.5" ry="7.5" transform="rotate(90,260,40)"/></g><g class="corners-square-color-0-1"><path clip-rule="evenodd" d="M 5 235v 50a 10 10, 0, 0, 0, 10 10h 50a 10 10, 0, 0, 0, 10 -10v -50a 10 10, 0, 0, 0, -10 -10h -50a 10 10, 0, 0, 0, -10 10zM 20 235h 40a 5 5, 0, 0, 1, 5 5v 40a 5 5, 0, 0, 1, -5 5h -40a 5 5, 0, 0, 1, -5 -5v -40a 5 5, 0, 0, 1, 5 -5z" transform="rotate(-90,40,260)"/></g><g class="corners-dot-color-0-1"><rect x="25" y="245" width="30" height="30" rx="7.5" ry="7.5" transform="rotate(-90,40,260)"/></g></svg></g></svg></svg>