<?xml version="1.0" encoding="UTF-8"?>
<svg version="1.1" xmlns="http://www.w3.org/2000/svg" width="794" height="1013">
<path d="M0 0 C6.681237 -0.07766286 13.36235319 -0.12925454 20.04394531 -0.16479492 C22.30505723 -0.17964964 24.56614161 -0.19993884 26.82714844 -0.22631836 C47.13333665 -0.45686502 67.25437587 0.75316568 87 5.8125 C88.03487549 6.07039307 89.06975098 6.32828613 90.13598633 6.59399414 C120.97303109 14.51047739 145.76801621 29.2510025 162.59666157 56.59426308 C164.4340741 61.05344666 164.42464798 64.83006891 164.39872742 69.60507202 C164.40537424 70.56574982 164.41202107 71.52642762 164.41886932 72.51621687 C164.4375042 75.73145967 164.43489365 78.94633049 164.43237305 82.16162109 C164.44138988 84.46790086 164.45171691 86.77417582 164.46325684 89.08044434 C164.49086199 95.34023259 164.50011618 101.59993 164.50611091 107.85977125 C164.51548536 114.40212582 164.54168803 120.94441229 164.56611633 127.48672485 C164.60534052 138.46721094 164.63318745 149.44768631 164.65356445 160.42822266 C164.67457877 171.73684308 164.70185781 183.04541986 164.73754883 194.35400391 C164.73974765 195.05138453 164.74194648 195.74876515 164.74421193 196.46727853 C164.7552817 199.96592772 164.76647449 203.46457652 164.77772844 206.96322513 C164.87089168 235.97544229 164.94227825 264.98769112 165 294 C166.32030464 293.08229828 166.32030464 293.08229828 167.6672821 292.14605713 C168.8402546 291.33203365 170.01325515 290.51805061 171.1862793 289.70410156 C171.76426018 289.30220612 172.34224106 288.90031067 172.93773651 288.48623657 C233.18230983 246.70716284 308.27953266 220.30456964 381.9375 219.76171875 C383.04441193 219.75201553 384.15132385 219.74231232 385.29177856 219.73231506 C388.8612231 219.707482 392.43047778 219.69479511 396 219.6875 C397.22120544 219.68488159 398.44241089 219.68226318 399.70062256 219.67956543 C427.37140337 219.67322401 455.00685677 221.44408266 482 228 C483 229 483 229 483.12304783 231.7936182 C483.12212604 233.05370921 483.12120424 234.31380022 483.12025452 235.61207581 C483.12153615 236.66078862 483.12153615 236.66078862 483.12284368 237.73068756 C483.12450051 240.09074751 483.11897384 242.45073753 483.11352539 244.81079102 C483.11324354 246.49564614 483.11340122 248.18050139 483.1139679 249.86535645 C483.11425594 254.45400453 483.10835811 259.0426267 483.10139394 263.63126874 C483.09516153 268.42124632 483.09455669 273.21122443 483.09336853 278.00120544 C483.09025488 287.07829032 483.08204104 296.15536321 483.07201904 305.2324428 C483.06085895 315.56358581 483.05534772 325.89472939 483.05032361 336.22587693 C483.03985845 357.48392465 483.02225836 378.74196157 483 400 C481.39428809 399.51939452 479.78866304 399.03849884 478.18307495 398.55747986 C477.28893324 398.28971206 476.39479153 398.02194426 475.47355461 397.74606228 C472.87231572 396.96148845 470.28182634 396.14818444 467.6953125 395.31640625 C455.23873443 391.3713415 442.89130391 388.14342729 430 386 C428.72511719 385.77441406 427.45023437 385.54882812 426.13671875 385.31640625 C368.17904525 376.73227688 306.77612337 393.86471843 259.87109375 428.296875 C243.90874915 440.26742674 229.42760009 453.33533832 217 469 C216.34386719 469.78890625 215.68773437 470.5778125 215.01171875 471.390625 C205.19745664 483.27001241 197.16937628 496.39022911 190 510 C189.63551758 510.68416992 189.27103516 511.36833984 188.89550781 512.07324219 C160.9827677 565.21338378 156.86695888 629.45126767 174.42358398 686.51757812 C185.64051077 720.93702229 203.93830518 751.88388022 229 778 C229.58523437 778.6177832 230.17046875 779.23556641 230.7734375 779.87207031 C240.43485125 790.02958363 250.56482122 798.89256215 262 807 C262.63260742 807.45068848 263.26521484 807.90137695 263.91699219 808.36572266 C312.8441907 842.89272782 374.7747712 857.14336963 433.92480469 847.55224609 C469.70099124 841.1275292 503.6475706 827.56809908 533 806 C533.57443848 805.58250488 534.14887695 805.16500977 534.74072266 804.73486328 C543.39300122 798.41426222 551.27695697 791.41640328 559 784 C559.51449707 783.51273438 560.02899414 783.02546875 560.55908203 782.5234375 C568.54296865 774.94241916 575.43322727 766.82798427 582 758 C582.42522949 757.43555176 582.85045898 756.87110352 583.28857422 756.28955078 C614.44341098 714.7857025 629.35753572 665.41580072 629.51171875 613.8515625 C629.52725056 611.96768113 629.54405865 610.08380986 629.56213379 608.19995117 C629.61925525 601.34174468 629.65201507 594.48335257 629.6875 587.625 C629.790625 572.23875 629.89375 556.8525 630 541 C683.79 541 737.58 541 793 541 C794.12562387 556.75873413 794.12562387 556.75873413 794.14526367 562.79858398 C794.15030159 563.79497391 794.15030159 563.79497391 794.15544128 564.81149292 C794.16475008 566.95638026 794.16688542 569.1011876 794.16796875 571.24609375 C794.17119993 572.7884982 794.17456521 574.33090238 794.17805481 575.87330627 C794.18400001 579.09629013 794.18589999 582.31924739 794.18530273 585.54223633 C794.18522226 588.77536713 794.1920453 592.00835387 794.20581055 595.24145508 C794.50405961 666.46547738 783.21542113 735.29965715 749.99755859 799.07861328 C748.96058625 801.0759144 747.94298687 803.08241284 746.92578125 805.08984375 C726.72854799 844.53957138 697.14223675 883.06578357 663.3984375 911.94140625 C661.49114228 913.57844954 659.605444 915.23311597 657.7265625 916.90234375 C631.55552089 940.05121975 602.10419837 958.28236341 571 974 C570.24992676 974.38043457 569.49985352 974.76086914 568.72705078 975.15283203 C529.66551262 994.78049366 487.08945907 1005.16417961 444 1011 C443.03723145 1011.13422363 442.07446289 1011.26844727 441.08251953 1011.40673828 C347.89749337 1023.80235168 249.80546756 996.73901436 156.3125 933 C149.71584051 927.85198658 143.336791 922.46304338 137 917 C135.94232422 916.09507812 135.94232422 916.09507812 134.86328125 915.171875 C122.185839 904.22196681 109.87675767 892.75507325 99 880 C98.15179688 879.0409375 97.30359375 878.081875 96.4296875 877.09375 C83.75617656 862.69222964 72.22688382 847.23162289 62 831 C61.55124512 830.29037109 61.10249023 829.58074219 60.64013672 828.84960938 C31.53088762 782.4583018 12.62136024 731.3059606 4.1875 677.25 C3.8946814 675.38952026 3.8946814 675.38952026 3.59594727 673.49145508 C0.41097274 651.67191877 -0.29566715 629.78466955 -0.24050903 607.7663269 C-0.24138361 605.12463476 -0.2430558 602.48295378 -0.24568737 599.84126389 C-0.24978722 594.14991718 -0.24663025 588.45861277 -0.23841095 582.76727104 C-0.22622403 574.30477058 -0.22575005 565.84229618 -0.22749493 557.37978854 C-0.23010882 543.13705348 -0.22349318 528.89433713 -0.21146011 514.65160751 C-0.19959132 500.56694318 -0.19192124 486.48228664 -0.18975449 472.39761734 C-0.18954827 471.07980288 -0.18954827 471.07980288 -0.18933788 469.7353659 C-0.18866114 465.27297031 -0.1880584 460.81057472 -0.18748413 456.34817912 C-0.18329284 424.81121569 -0.16984487 393.27426241 -0.15087891 361.73730469 C-0.1324849 331.11588596 -0.11833002 300.49447002 -0.10986328 269.87304688 C-0.10960023 268.92774105 -0.10933718 267.98243523 -0.10906615 267.00848377 C-0.10642892 257.51459496 -0.10387732 248.02070612 -0.10138843 238.52681726 C-0.09631717 219.18984458 -0.09067467 199.85287208 -0.08468628 180.51589966 C-0.0844117 179.62698373 -0.08413712 178.7380678 -0.08385422 177.82221503 C-0.06547944 118.54813913 -0.03379219 59.27406887 0 0 Z " fill="#A274EA" transform="translate(0,0)"/>
<path d="M0 0 C53.46 0 106.92 0 162 0 C162 51.15 162 102.3 162 155 C108.54 155 55.08 155 0 155 C0 103.85 0 52.7 0 0 Z " fill="#FFC11A" transform="translate(629,246)"/>
</svg>
